<?xml version="1.0" encoding="utf-8" standalone="no"?>
<!DOCTYPE svg PUBLIC "-//W3C//DTD SVG 1.1//EN"
  "http://www.w3.org/Graphics/SVG/1.1/DTD/svg11.dtd">
<!-- Created with matplotlib (http://matplotlib.org/) -->
<svg height="345.6pt" version="1.1" viewBox="0 0 460.8 345.6" width="460.8pt" xmlns="http://www.w3.org/2000/svg" xmlns:xlink="http://www.w3.org/1999/xlink">
 <defs>
  <style type="text/css">
*{stroke-linecap:butt;stroke-linejoin:round;}
  </style>
 </defs>
 <g id="figure_1">
  <g id="patch_1">
   <path d="M 0 345.6 
L 460.8 345.6 
L 460.8 0 
L 0 0 
z
" style="fill:#ffffff;"/>
  </g>
  <g id="axes_1">
   <g id="patch_2">
    <path d="M 57.6 307.584 
L 414.72 307.584 
L 414.72 41.472 
L 57.6 41.472 
z
" style="fill:#ffffff;"/>
   </g>
   <g id="matplotlib.axis_1">
    <g id="xtick_1">
     <g id="line2d_1">
      <path clip-path="url(#pf736bc2a27)" d="M 57.6 307.584 
L 57.6 41.472 
" style="fill:none;stroke:#b0b0b0;stroke-linecap:square;stroke-width:0.8;"/>
     </g>
     <g id="line2d_2">
      <defs>
       <path d="M 0 0 
L 0 3.5 
" id="m7e323246bf" style="stroke:#000000;stroke-width:0.8;"/>
      </defs>
      <g>
       <use style="stroke:#000000;stroke-width:0.8;" x="57.6" xlink:href="#m7e323246bf" y="307.584"/>
      </g>
     </g>
     <g id="text_1">
      <!-- 70 -->
      <defs>
       <path d="M 8.203125 72.90625 
L 55.078125 72.90625 
L 55.078125 68.703125 
L 28.609375 0 
L 18.3125 0 
L 43.21875 64.59375 
L 8.203125 64.59375 
z
" id="DejaVuSans-37"/>
       <path d="M 31.78125 66.40625 
Q 24.171875 66.40625 20.328125 58.90625 
Q 16.5 51.421875 16.5 36.375 
Q 16.5 21.390625 20.328125 13.890625 
Q 24.171875 6.390625 31.78125 6.390625 
Q 39.453125 6.390625 43.28125 13.890625 
Q 47.125 21.390625 47.125 36.375 
Q 47.125 51.421875 43.28125 58.90625 
Q 39.453125 66.40625 31.78125 66.40625 
z
M 31.78125 74.21875 
Q 44.046875 74.21875 50.515625 64.515625 
Q 56.984375 54.828125 56.984375 36.375 
Q 56.984375 17.96875 50.515625 8.265625 
Q 44.046875 -1.421875 31.78125 -1.421875 
Q 19.53125 -1.421875 13.0625 8.265625 
Q 6.59375 17.96875 6.59375 36.375 
Q 6.59375 54.828125 13.0625 64.515625 
Q 19.53125 74.21875 31.78125 74.21875 
z
" id="DejaVuSans-30"/>
      </defs>
      <g transform="translate(49.965 323.702125)scale(0.12 -0.12)">
       <use xlink:href="#DejaVuSans-37"/>
       <use x="63.623047" xlink:href="#DejaVuSans-30"/>
      </g>
     </g>
    </g>
    <g id="xtick_2">
     <g id="line2d_3">
      <path clip-path="url(#pf736bc2a27)" d="M 117.12 307.584 
L 117.12 41.472 
" style="fill:none;stroke:#b0b0b0;stroke-linecap:square;stroke-width:0.8;"/>
     </g>
     <g id="line2d_4">
      <g>
       <use style="stroke:#000000;stroke-width:0.8;" x="117.12" xlink:href="#m7e323246bf" y="307.584"/>
      </g>
     </g>
     <g id="text_2">
      <!-- 80 -->
      <defs>
       <path d="M 31.78125 34.625 
Q 24.75 34.625 20.71875 30.859375 
Q 16.703125 27.09375 16.703125 20.515625 
Q 16.703125 13.921875 20.71875 10.15625 
Q 24.75 6.390625 31.78125 6.390625 
Q 38.8125 6.390625 42.859375 10.171875 
Q 46.921875 13.96875 46.921875 20.515625 
Q 46.921875 27.09375 42.890625 30.859375 
Q 38.875 34.625 31.78125 34.625 
z
M 21.921875 38.8125 
Q 15.578125 40.375 12.03125 44.71875 
Q 8.5 49.078125 8.5 55.328125 
Q 8.5 64.0625 14.71875 69.140625 
Q 20.953125 74.21875 31.78125 74.21875 
Q 42.671875 74.21875 48.875 69.140625 
Q 55.078125 64.0625 55.078125 55.328125 
Q 55.078125 49.078125 51.53125 44.71875 
Q 48 40.375 41.703125 38.8125 
Q 48.828125 37.15625 52.796875 32.3125 
Q 56.78125 27.484375 56.78125 20.515625 
Q 56.78125 9.90625 50.3125 4.234375 
Q 43.84375 -1.421875 31.78125 -1.421875 
Q 19.734375 -1.421875 13.25 4.234375 
Q 6.78125 9.90625 6.78125 20.515625 
Q 6.78125 27.484375 10.78125 32.3125 
Q 14.796875 37.15625 21.921875 38.8125 
z
M 18.3125 54.390625 
Q 18.3125 48.734375 21.84375 45.5625 
Q 25.390625 42.390625 31.78125 42.390625 
Q 38.140625 42.390625 41.71875 45.5625 
Q 45.3125 48.734375 45.3125 54.390625 
Q 45.3125 60.0625 41.71875 63.234375 
Q 38.140625 66.40625 31.78125 66.40625 
Q 25.390625 66.40625 21.84375 63.234375 
Q 18.3125 60.0625 18.3125 54.390625 
z
" id="DejaVuSans-38"/>
      </defs>
      <g transform="translate(109.485 323.702125)scale(0.12 -0.12)">
       <use xlink:href="#DejaVuSans-38"/>
       <use x="63.623047" xlink:href="#DejaVuSans-30"/>
      </g>
     </g>
    </g>
    <g id="xtick_3">
     <g id="line2d_5">
      <path clip-path="url(#pf736bc2a27)" d="M 176.64 307.584 
L 176.64 41.472 
" style="fill:none;stroke:#b0b0b0;stroke-linecap:square;stroke-width:0.8;"/>
     </g>
     <g id="line2d_6">
      <g>
       <use style="stroke:#000000;stroke-width:0.8;" x="176.64" xlink:href="#m7e323246bf" y="307.584"/>
      </g>
     </g>
     <g id="text_3">
      <!-- 90 -->
      <defs>
       <path d="M 10.984375 1.515625 
L 10.984375 10.5 
Q 14.703125 8.734375 18.5 7.8125 
Q 22.3125 6.890625 25.984375 6.890625 
Q 35.75 6.890625 40.890625 13.453125 
Q 46.046875 20.015625 46.78125 33.40625 
Q 43.953125 29.203125 39.59375 26.953125 
Q 35.25 24.703125 29.984375 24.703125 
Q 19.046875 24.703125 12.671875 31.3125 
Q 6.296875 37.9375 6.296875 49.421875 
Q 6.296875 60.640625 12.9375 67.421875 
Q 19.578125 74.21875 30.609375 74.21875 
Q 43.265625 74.21875 49.921875 64.515625 
Q 56.59375 54.828125 56.59375 36.375 
Q 56.59375 19.140625 48.40625 8.859375 
Q 40.234375 -1.421875 26.421875 -1.421875 
Q 22.703125 -1.421875 18.890625 -0.6875 
Q 15.09375 0.046875 10.984375 1.515625 
z
M 30.609375 32.421875 
Q 37.25 32.421875 41.125 36.953125 
Q 45.015625 41.5 45.015625 49.421875 
Q 45.015625 57.28125 41.125 61.84375 
Q 37.25 66.40625 30.609375 66.40625 
Q 23.96875 66.40625 20.09375 61.84375 
Q 16.21875 57.28125 16.21875 49.421875 
Q 16.21875 41.5 20.09375 36.953125 
Q 23.96875 32.421875 30.609375 32.421875 
z
" id="DejaVuSans-39"/>
      </defs>
      <g transform="translate(169.005 323.702125)scale(0.12 -0.12)">
       <use xlink:href="#DejaVuSans-39"/>
       <use x="63.623047" xlink:href="#DejaVuSans-30"/>
      </g>
     </g>
    </g>
    <g id="xtick_4">
     <g id="line2d_7">
      <path clip-path="url(#pf736bc2a27)" d="M 236.16 307.584 
L 236.16 41.472 
" style="fill:none;stroke:#b0b0b0;stroke-linecap:square;stroke-width:0.8;"/>
     </g>
     <g id="line2d_8">
      <g>
       <use style="stroke:#000000;stroke-width:0.8;" x="236.16" xlink:href="#m7e323246bf" y="307.584"/>
      </g>
     </g>
     <g id="text_4">
      <!-- 100 -->
      <defs>
       <path d="M 12.40625 8.296875 
L 28.515625 8.296875 
L 28.515625 63.921875 
L 10.984375 60.40625 
L 10.984375 69.390625 
L 28.421875 72.90625 
L 38.28125 72.90625 
L 38.28125 8.296875 
L 54.390625 8.296875 
L 54.390625 0 
L 12.40625 0 
z
" id="DejaVuSans-31"/>
      </defs>
      <g transform="translate(224.7075 323.702125)scale(0.12 -0.12)">
       <use xlink:href="#DejaVuSans-31"/>
       <use x="63.623047" xlink:href="#DejaVuSans-30"/>
       <use x="127.246094" xlink:href="#DejaVuSans-30"/>
      </g>
     </g>
    </g>
    <g id="xtick_5">
     <g id="line2d_9">
      <path clip-path="url(#pf736bc2a27)" d="M 295.68 307.584 
L 295.68 41.472 
" style="fill:none;stroke:#b0b0b0;stroke-linecap:square;stroke-width:0.8;"/>
     </g>
     <g id="line2d_10">
      <g>
       <use style="stroke:#000000;stroke-width:0.8;" x="295.68" xlink:href="#m7e323246bf" y="307.584"/>
      </g>
     </g>
     <g id="text_5">
      <!-- 110 -->
      <g transform="translate(284.2275 323.702125)scale(0.12 -0.12)">
       <use xlink:href="#DejaVuSans-31"/>
       <use x="63.623047" xlink:href="#DejaVuSans-31"/>
       <use x="127.246094" xlink:href="#DejaVuSans-30"/>
      </g>
     </g>
    </g>
    <g id="xtick_6">
     <g id="line2d_11">
      <path clip-path="url(#pf736bc2a27)" d="M 355.2 307.584 
L 355.2 41.472 
" style="fill:none;stroke:#b0b0b0;stroke-linecap:square;stroke-width:0.8;"/>
     </g>
     <g id="line2d_12">
      <g>
       <use style="stroke:#000000;stroke-width:0.8;" x="355.2" xlink:href="#m7e323246bf" y="307.584"/>
      </g>
     </g>
     <g id="text_6">
      <!-- 120 -->
      <defs>
       <path d="M 19.1875 8.296875 
L 53.609375 8.296875 
L 53.609375 0 
L 7.328125 0 
L 7.328125 8.296875 
Q 12.9375 14.109375 22.625 23.890625 
Q 32.328125 33.6875 34.8125 36.53125 
Q 39.546875 41.84375 41.421875 45.53125 
Q 43.3125 49.21875 43.3125 52.78125 
Q 43.3125 58.59375 39.234375 62.25 
Q 35.15625 65.921875 28.609375 65.921875 
Q 23.96875 65.921875 18.8125 64.3125 
Q 13.671875 62.703125 7.8125 59.421875 
L 7.8125 69.390625 
Q 13.765625 71.78125 18.9375 73 
Q 24.125 74.21875 28.421875 74.21875 
Q 39.75 74.21875 46.484375 68.546875 
Q 53.21875 62.890625 53.21875 53.421875 
Q 53.21875 48.921875 51.53125 44.890625 
Q 49.859375 40.875 45.40625 35.40625 
Q 44.1875 33.984375 37.640625 27.21875 
Q 31.109375 20.453125 19.1875 8.296875 
z
" id="DejaVuSans-32"/>
      </defs>
      <g transform="translate(343.7475 323.702125)scale(0.12 -0.12)">
       <use xlink:href="#DejaVuSans-31"/>
       <use x="63.623047" xlink:href="#DejaVuSans-32"/>
       <use x="127.246094" xlink:href="#DejaVuSans-30"/>
      </g>
     </g>
    </g>
    <g id="xtick_7">
     <g id="line2d_13">
      <path clip-path="url(#pf736bc2a27)" d="M 414.72 307.584 
L 414.72 41.472 
" style="fill:none;stroke:#b0b0b0;stroke-linecap:square;stroke-width:0.8;"/>
     </g>
     <g id="line2d_14">
      <g>
       <use style="stroke:#000000;stroke-width:0.8;" x="414.72" xlink:href="#m7e323246bf" y="307.584"/>
      </g>
     </g>
     <g id="text_7">
      <!-- 130 -->
      <defs>
       <path d="M 40.578125 39.3125 
Q 47.65625 37.796875 51.625 33 
Q 55.609375 28.21875 55.609375 21.1875 
Q 55.609375 10.40625 48.1875 4.484375 
Q 40.765625 -1.421875 27.09375 -1.421875 
Q 22.515625 -1.421875 17.65625 -0.515625 
Q 12.796875 0.390625 7.625 2.203125 
L 7.625 11.71875 
Q 11.71875 9.328125 16.59375 8.109375 
Q 21.484375 6.890625 26.8125 6.890625 
Q 36.078125 6.890625 40.9375 10.546875 
Q 45.796875 14.203125 45.796875 21.1875 
Q 45.796875 27.640625 41.28125 31.265625 
Q 36.765625 34.90625 28.71875 34.90625 
L 20.21875 34.90625 
L 20.21875 43.015625 
L 29.109375 43.015625 
Q 36.375 43.015625 40.234375 45.921875 
Q 44.09375 48.828125 44.09375 54.296875 
Q 44.09375 59.90625 40.109375 62.90625 
Q 36.140625 65.921875 28.71875 65.921875 
Q 24.65625 65.921875 20.015625 65.03125 
Q 15.375 64.15625 9.8125 62.3125 
L 9.8125 71.09375 
Q 15.4375 72.65625 20.34375 73.4375 
Q 25.25 74.21875 29.59375 74.21875 
Q 40.828125 74.21875 47.359375 69.109375 
Q 53.90625 64.015625 53.90625 55.328125 
Q 53.90625 49.265625 50.4375 45.09375 
Q 46.96875 40.921875 40.578125 39.3125 
z
" id="DejaVuSans-33"/>
      </defs>
      <g transform="translate(403.2675 323.702125)scale(0.12 -0.12)">
       <use xlink:href="#DejaVuSans-31"/>
       <use x="63.623047" xlink:href="#DejaVuSans-33"/>
       <use x="127.246094" xlink:href="#DejaVuSans-30"/>
      </g>
     </g>
    </g>
    <g id="text_8">
     <!-- X -->
     <defs>
      <path d="M 6.296875 72.90625 
L 16.890625 72.90625 
L 35.015625 45.796875 
L 53.21875 72.90625 
L 63.8125 72.90625 
L 40.375 37.890625 
L 65.375 0 
L 54.78125 0 
L 34.28125 31 
L 13.625 0 
L 2.984375 0 
L 29 38.921875 
z
" id="DejaVuSans-58"/>
     </defs>
     <g transform="translate(232.05 339.315875)scale(0.12 -0.12)">
      <use xlink:href="#DejaVuSans-58"/>
     </g>
    </g>
   </g>
   <g id="matplotlib.axis_2">
    <g id="ytick_1">
     <g id="line2d_15">
      <path clip-path="url(#pf736bc2a27)" d="M 57.6 280.9728 
L 414.72 280.9728 
" style="fill:none;stroke:#b0b0b0;stroke-linecap:square;stroke-width:0.8;"/>
     </g>
     <g id="line2d_16">
      <defs>
       <path d="M 0 0 
L -3.5 0 
" id="m245fbff627" style="stroke:#000000;stroke-width:0.8;"/>
      </defs>
      <g>
       <use style="stroke:#000000;stroke-width:0.8;" x="57.6" xlink:href="#m245fbff627" y="280.9728"/>
      </g>
     </g>
     <g id="text_9">
      <!-- 1000 -->
      <g transform="translate(20.06 285.531862)scale(0.12 -0.12)">
       <use xlink:href="#DejaVuSans-31"/>
       <use x="63.623047" xlink:href="#DejaVuSans-30"/>
       <use x="127.246094" xlink:href="#DejaVuSans-30"/>
       <use x="190.869141" xlink:href="#DejaVuSans-30"/>
      </g>
     </g>
    </g>
    <g id="ytick_2">
     <g id="line2d_17">
      <path clip-path="url(#pf736bc2a27)" d="M 57.6 227.7504 
L 414.72 227.7504 
" style="fill:none;stroke:#b0b0b0;stroke-linecap:square;stroke-width:0.8;"/>
     </g>
     <g id="line2d_18">
      <g>
       <use style="stroke:#000000;stroke-width:0.8;" x="57.6" xlink:href="#m245fbff627" y="227.7504"/>
      </g>
     </g>
     <g id="text_10">
      <!-- 1500 -->
      <defs>
       <path d="M 10.796875 72.90625 
L 49.515625 72.90625 
L 49.515625 64.59375 
L 19.828125 64.59375 
L 19.828125 46.734375 
Q 21.96875 47.46875 24.109375 47.828125 
Q 26.265625 48.1875 28.421875 48.1875 
Q 40.625 48.1875 47.75 41.5 
Q 54.890625 34.8125 54.890625 23.390625 
Q 54.890625 11.625 47.5625 5.09375 
Q 40.234375 -1.421875 26.90625 -1.421875 
Q 22.3125 -1.421875 17.546875 -0.640625 
Q 12.796875 0.140625 7.71875 1.703125 
L 7.71875 11.625 
Q 12.109375 9.234375 16.796875 8.0625 
Q 21.484375 6.890625 26.703125 6.890625 
Q 35.15625 6.890625 40.078125 11.328125 
Q 45.015625 15.765625 45.015625 23.390625 
Q 45.015625 31 40.078125 35.4375 
Q 35.15625 39.890625 26.703125 39.890625 
Q 22.75 39.890625 18.8125 39.015625 
Q 14.890625 38.140625 10.796875 36.28125 
z
" id="DejaVuSans-35"/>
      </defs>
      <g transform="translate(20.06 232.309462)scale(0.12 -0.12)">
       <use xlink:href="#DejaVuSans-31"/>
       <use x="63.623047" xlink:href="#DejaVuSans-35"/>
       <use x="127.246094" xlink:href="#DejaVuSans-30"/>
       <use x="190.869141" xlink:href="#DejaVuSans-30"/>
      </g>
     </g>
    </g>
    <g id="ytick_3">
     <g id="line2d_19">
      <path clip-path="url(#pf736bc2a27)" d="M 57.6 174.528 
L 414.72 174.528 
" style="fill:none;stroke:#b0b0b0;stroke-linecap:square;stroke-width:0.8;"/>
     </g>
     <g id="line2d_20">
      <g>
       <use style="stroke:#000000;stroke-width:0.8;" x="57.6" xlink:href="#m245fbff627" y="174.528"/>
      </g>
     </g>
     <g id="text_11">
      <!-- 2000 -->
      <g transform="translate(20.06 179.087063)scale(0.12 -0.12)">
       <use xlink:href="#DejaVuSans-32"/>
       <use x="63.623047" xlink:href="#DejaVuSans-30"/>
       <use x="127.246094" xlink:href="#DejaVuSans-30"/>
       <use x="190.869141" xlink:href="#DejaVuSans-30"/>
      </g>
     </g>
    </g>
    <g id="ytick_4">
     <g id="line2d_21">
      <path clip-path="url(#pf736bc2a27)" d="M 57.6 121.3056 
L 414.72 121.3056 
" style="fill:none;stroke:#b0b0b0;stroke-linecap:square;stroke-width:0.8;"/>
     </g>
     <g id="line2d_22">
      <g>
       <use style="stroke:#000000;stroke-width:0.8;" x="57.6" xlink:href="#m245fbff627" y="121.3056"/>
      </g>
     </g>
     <g id="text_12">
      <!-- 2500 -->
      <g transform="translate(20.06 125.864663)scale(0.12 -0.12)">
       <use xlink:href="#DejaVuSans-32"/>
       <use x="63.623047" xlink:href="#DejaVuSans-35"/>
       <use x="127.246094" xlink:href="#DejaVuSans-30"/>
       <use x="190.869141" xlink:href="#DejaVuSans-30"/>
      </g>
     </g>
    </g>
    <g id="ytick_5">
     <g id="line2d_23">
      <path clip-path="url(#pf736bc2a27)" d="M 57.6 68.0832 
L 414.72 68.0832 
" style="fill:none;stroke:#b0b0b0;stroke-linecap:square;stroke-width:0.8;"/>
     </g>
     <g id="line2d_24">
      <g>
       <use style="stroke:#000000;stroke-width:0.8;" x="57.6" xlink:href="#m245fbff627" y="68.0832"/>
      </g>
     </g>
     <g id="text_13">
      <!-- 3000 -->
      <g transform="translate(20.06 72.642262)scale(0.12 -0.12)">
       <use xlink:href="#DejaVuSans-33"/>
       <use x="63.623047" xlink:href="#DejaVuSans-30"/>
       <use x="127.246094" xlink:href="#DejaVuSans-30"/>
       <use x="190.869141" xlink:href="#DejaVuSans-30"/>
      </g>
     </g>
    </g>
    <g id="text_14">
     <!-- Y -->
     <defs>
      <path d="M -0.203125 72.90625 
L 10.40625 72.90625 
L 30.609375 42.921875 
L 50.6875 72.90625 
L 61.28125 72.90625 
L 35.5 34.71875 
L 35.5 0 
L 25.59375 0 
L 25.59375 34.71875 
z
" id="DejaVuSans-59"/>
     </defs>
     <g transform="translate(13.564375 178.192688)rotate(-90)scale(0.12 -0.12)">
      <use xlink:href="#DejaVuSans-59"/>
     </g>
    </g>
   </g>
   <g id="line2d_25">
    <defs>
     <path d="M 0 5 
C 1.326016 5 2.597899 4.473168 3.535534 3.535534 
C 4.473168 2.597899 5 1.326016 5 0 
C 5 -1.326016 4.473168 -2.597899 3.535534 -3.535534 
C 2.597899 -4.473168 1.326016 -5 0 -5 
C -1.326016 -5 -2.597899 -4.473168 -3.535534 -3.535534 
C -4.473168 -2.597899 -5 -1.326016 -5 0 
C -5 1.326016 -4.473168 2.597899 -3.535534 3.535534 
C -2.597899 4.473168 -1.326016 5 0 5 
z
" id="m24af8698cc" style="stroke:#669999;"/>
    </defs>
    <g clip-path="url(#pf736bc2a27)">
     <use style="fill:#669999;opacity:0.6;stroke:#669999;" x="362.012394" xlink:href="#m24af8698cc" y="91.842615"/>
     <use style="fill:#669999;opacity:0.6;stroke:#669999;" x="299.727841" xlink:href="#m24af8698cc" y="139.025453"/>
     <use style="fill:#669999;opacity:0.6;stroke:#669999;" x="185.422559" xlink:href="#m24af8698cc" y="205.860944"/>
     <use style="fill:#669999;opacity:0.6;stroke:#669999;" x="128.016567" xlink:href="#m24af8698cc" y="226.982237"/>
     <use style="fill:#669999;opacity:0.6;stroke:#669999;" x="216.197336" xlink:href="#m24af8698cc" y="192.999831"/>
     <use style="fill:#669999;opacity:0.6;stroke:#669999;" x="330.835741" xlink:href="#m24af8698cc" y="118.25951"/>
     <use style="fill:#669999;opacity:0.6;stroke:#669999;" x="218.015037" xlink:href="#m24af8698cc" y="200.345028"/>
     <use style="fill:#669999;opacity:0.6;stroke:#669999;" x="283.269359" xlink:href="#m24af8698cc" y="149.525992"/>
     <use style="fill:#669999;opacity:0.6;stroke:#669999;" x="493.332764" xlink:href="#m24af8698cc" y="18.599281"/>
     <use style="fill:#669999;opacity:0.6;stroke:#669999;" x="113.284804" xlink:href="#m24af8698cc" y="245.613668"/>
     <use style="fill:#669999;opacity:0.6;stroke:#669999;" x="90.773892" xlink:href="#m24af8698cc" y="242.380396"/>
     <use style="fill:#669999;opacity:0.6;stroke:#669999;" x="135.223396" xlink:href="#m24af8698cc" y="229.783541"/>
     <use style="fill:#669999;opacity:0.6;stroke:#669999;" x="222.224383" xlink:href="#m24af8698cc" y="173.791591"/>
     <use style="fill:#669999;opacity:0.6;stroke:#669999;" x="379.91225" xlink:href="#m24af8698cc" y="110.711018"/>
     <use style="fill:#669999;opacity:0.6;stroke:#669999;" x="292.977899" xlink:href="#m24af8698cc" y="128.94544"/>
     <use style="fill:#669999;opacity:0.6;stroke:#669999;" x="265.330271" xlink:href="#m24af8698cc" y="154.612253"/>
     <use style="fill:#669999;opacity:0.6;stroke:#669999;" x="375.59165" xlink:href="#m24af8698cc" y="104.635737"/>
     <use style="fill:#669999;opacity:0.6;stroke:#669999;" x="265.790341" xlink:href="#m24af8698cc" y="151.017109"/>
     <use style="fill:#669999;opacity:0.6;stroke:#669999;" x="466.067107" xlink:href="#m24af8698cc" y="35.819784"/>
     <use style="fill:#669999;opacity:0.6;stroke:#669999;" x="317.263658" xlink:href="#m24af8698cc" y="126.799446"/>
     <use style="fill:#669999;opacity:0.6;stroke:#669999;" x="310.47257" xlink:href="#m24af8698cc" y="138.101776"/>
     <use style="fill:#669999;opacity:0.6;stroke:#669999;" x="347.685033" xlink:href="#m24af8698cc" y="100.763014"/>
     <use style="fill:#669999;opacity:0.6;stroke:#669999;" x="240.59736" xlink:href="#m24af8698cc" y="156.471778"/>
     <use style="fill:#669999;opacity:0.6;stroke:#669999;" x="290.650738" xlink:href="#m24af8698cc" y="146.618296"/>
     <use style="fill:#669999;opacity:0.6;stroke:#669999;" x="264.109842" xlink:href="#m24af8698cc" y="172.312825"/>
     <use style="fill:#669999;opacity:0.6;stroke:#669999;" x="117.147907" xlink:href="#m24af8698cc" y="261.900447"/>
     <use style="fill:#669999;opacity:0.6;stroke:#669999;" x="276.086977" xlink:href="#m24af8698cc" y="133.059931"/>
     <use style="fill:#669999;opacity:0.6;stroke:#669999;" x="381.611738" xlink:href="#m24af8698cc" y="68.255835"/>
     <use style="fill:#669999;opacity:0.6;stroke:#669999;" x="203.39302" xlink:href="#m24af8698cc" y="203.119311"/>
     <use style="fill:#669999;opacity:0.6;stroke:#669999;" x="319.090636" xlink:href="#m24af8698cc" y="116.469406"/>
     <use style="fill:#669999;opacity:0.6;stroke:#669999;" x="338.786397" xlink:href="#m24af8698cc" y="109.943976"/>
     <use style="fill:#669999;opacity:0.6;stroke:#669999;" x="219.83475" xlink:href="#m24af8698cc" y="187.052763"/>
     <use style="fill:#669999;opacity:0.6;stroke:#669999;" x="265.627707" xlink:href="#m24af8698cc" y="170.175666"/>
     <use style="fill:#669999;opacity:0.6;stroke:#669999;" x="171.453824" xlink:href="#m24af8698cc" y="192.449838"/>
     <use style="fill:#669999;opacity:0.6;stroke:#669999;" x="143.531505" xlink:href="#m24af8698cc" y="223.407321"/>
     <use style="fill:#669999;opacity:0.6;stroke:#669999;" x="244.048964" xlink:href="#m24af8698cc" y="156.74555"/>
     <use style="fill:#669999;opacity:0.6;stroke:#669999;" x="191.595813" xlink:href="#m24af8698cc" y="195.30607"/>
     <use style="fill:#669999;opacity:0.6;stroke:#669999;" x="366.669463" xlink:href="#m24af8698cc" y="114.027237"/>
     <use style="fill:#669999;opacity:0.6;stroke:#669999;" x="219.901868" xlink:href="#m24af8698cc" y="171.831919"/>
     <use style="fill:#669999;opacity:0.6;stroke:#669999;" x="165.549889" xlink:href="#m24af8698cc" y="214.512864"/>
     <use style="fill:#669999;opacity:0.6;stroke:#669999;" x="146.947881" xlink:href="#m24af8698cc" y="224.261671"/>
     <use style="fill:#669999;opacity:0.6;stroke:#669999;" x="255.488901" xlink:href="#m24af8698cc" y="165.175202"/>
     <use style="fill:#669999;opacity:0.6;stroke:#669999;" x="398.746551" xlink:href="#m24af8698cc" y="81.815377"/>
     <use style="fill:#669999;opacity:0.6;stroke:#669999;" x="257.805416" xlink:href="#m24af8698cc" y="169.578083"/>
     <use style="fill:#669999;opacity:0.6;stroke:#669999;" x="112.772027" xlink:href="#m24af8698cc" y="260.221998"/>
     <use style="fill:#669999;opacity:0.6;stroke:#669999;" x="238.683785" xlink:href="#m24af8698cc" y="171.577727"/>
     <use style="fill:#669999;opacity:0.6;stroke:#669999;" x="190.200567" xlink:href="#m24af8698cc" y="202.012155"/>
     <use style="fill:#669999;opacity:0.6;stroke:#669999;" x="216.362957" xlink:href="#m24af8698cc" y="183.627833"/>
     <use style="fill:#669999;opacity:0.6;stroke:#669999;" x="322.284254" xlink:href="#m24af8698cc" y="119.476341"/>
     <use style="fill:#669999;opacity:0.6;stroke:#669999;" x="216.862806" xlink:href="#m24af8698cc" y="192.847928"/>
     <use style="fill:#669999;opacity:0.6;stroke:#669999;" x="281.338811" xlink:href="#m24af8698cc" y="162.717564"/>
     <use style="fill:#669999;opacity:0.6;stroke:#669999;" x="227.97195" xlink:href="#m24af8698cc" y="171.257662"/>
     <use style="fill:#669999;opacity:0.6;stroke:#669999;" x="330.398358" xlink:href="#m24af8698cc" y="118.319995"/>
     <use style="fill:#669999;opacity:0.6;stroke:#669999;" x="145.779235" xlink:href="#m24af8698cc" y="233.993514"/>
     <use style="fill:#669999;opacity:0.6;stroke:#669999;" x="124.659727" xlink:href="#m24af8698cc" y="244.500306"/>
     <use style="fill:#669999;opacity:0.6;stroke:#669999;" x="316.710864" xlink:href="#m24af8698cc" y="124.090487"/>
     <use style="fill:#669999;opacity:0.6;stroke:#669999;" x="292.035673" xlink:href="#m24af8698cc" y="128.650096"/>
     <use style="fill:#669999;opacity:0.6;stroke:#669999;" x="186.62765" xlink:href="#m24af8698cc" y="201.901139"/>
     <use style="fill:#669999;opacity:0.6;stroke:#669999;" x="186.287961" xlink:href="#m24af8698cc" y="196.318132"/>
     <use style="fill:#669999;opacity:0.6;stroke:#669999;" x="211.873288" xlink:href="#m24af8698cc" y="189.123371"/>
     <use style="fill:#669999;opacity:0.6;stroke:#669999;" x="228.990115" xlink:href="#m24af8698cc" y="156.673658"/>
     <use style="fill:#669999;opacity:0.6;stroke:#669999;" x="184.262179" xlink:href="#m24af8698cc" y="213.425872"/>
     <use style="fill:#669999;opacity:0.6;stroke:#669999;" x="183.179397" xlink:href="#m24af8698cc" y="199.738966"/>
     <use style="fill:#669999;opacity:0.6;stroke:#669999;" x="291.561" xlink:href="#m24af8698cc" y="148.615151"/>
     <use style="fill:#669999;opacity:0.6;stroke:#669999;" x="91.646377" xlink:href="#m24af8698cc" y="279.955532"/>
     <use style="fill:#669999;opacity:0.6;stroke:#669999;" x="319.943954" xlink:href="#m24af8698cc" y="110.715348"/>
     <use style="fill:#669999;opacity:0.6;stroke:#669999;" x="204.494061" xlink:href="#m24af8698cc" y="188.507142"/>
     <use style="fill:#669999;opacity:0.6;stroke:#669999;" x="212.715817" xlink:href="#m24af8698cc" y="191.880199"/>
     <use style="fill:#669999;opacity:0.6;stroke:#669999;" x="125.937101" xlink:href="#m24af8698cc" y="251.743586"/>
     <use style="fill:#669999;opacity:0.6;stroke:#669999;" x="253.301918" xlink:href="#m24af8698cc" y="168.391366"/>
     <use style="fill:#669999;opacity:0.6;stroke:#669999;" x="221.174243" xlink:href="#m24af8698cc" y="172.067723"/>
     <use style="fill:#669999;opacity:0.6;stroke:#669999;" x="285.950438" xlink:href="#m24af8698cc" y="130.317209"/>
     <use style="fill:#669999;opacity:0.6;stroke:#669999;" x="235.293962" xlink:href="#m24af8698cc" y="186.668516"/>
     <use style="fill:#669999;opacity:0.6;stroke:#669999;" x="226.334178" xlink:href="#m24af8698cc" y="175.092577"/>
     <use style="fill:#669999;opacity:0.6;stroke:#669999;" x="225.916421" xlink:href="#m24af8698cc" y="191.297462"/>
     <use style="fill:#669999;opacity:0.6;stroke:#669999;" x="264.796183" xlink:href="#m24af8698cc" y="166.948422"/>
     <use style="fill:#669999;opacity:0.6;stroke:#669999;" x="86.157665" xlink:href="#m24af8698cc" y="263.395079"/>
     <use style="fill:#669999;opacity:0.6;stroke:#669999;" x="210.581655" xlink:href="#m24af8698cc" y="208.024443"/>
     <use style="fill:#669999;opacity:0.6;stroke:#669999;" x="346.116938" xlink:href="#m24af8698cc" y="125.869229"/>
     <use style="fill:#669999;opacity:0.6;stroke:#669999;" x="131.672119" xlink:href="#m24af8698cc" y="231.651017"/>
     <use style="fill:#669999;opacity:0.6;stroke:#669999;" x="347.69222" xlink:href="#m24af8698cc" y="93.399105"/>
     <use style="fill:#669999;opacity:0.6;stroke:#669999;" x="224.488115" xlink:href="#m24af8698cc" y="176.456993"/>
     <use style="fill:#669999;opacity:0.6;stroke:#669999;" x="84.212139" xlink:href="#m24af8698cc" y="268.275102"/>
     <use style="fill:#669999;opacity:0.6;stroke:#669999;" x="132.068908" xlink:href="#m24af8698cc" y="251.287916"/>
     <use style="fill:#669999;opacity:0.6;stroke:#669999;" x="334.581403" xlink:href="#m24af8698cc" y="128.941644"/>
     <use style="fill:#669999;opacity:0.6;stroke:#669999;" x="324.542882" xlink:href="#m24af8698cc" y="125.086559"/>
     <use style="fill:#669999;opacity:0.6;stroke:#669999;" x="363.335977" xlink:href="#m24af8698cc" y="99.7984"/>
     <use style="fill:#669999;opacity:0.6;stroke:#669999;" x="347.648837" xlink:href="#m24af8698cc" y="112.104654"/>
     <use style="fill:#669999;opacity:0.6;stroke:#669999;" x="135.395965" xlink:href="#m24af8698cc" y="238.405565"/>
     <use style="fill:#669999;opacity:0.6;stroke:#669999;" x="356.018059" xlink:href="#m24af8698cc" y="108.47271"/>
     <use style="fill:#669999;opacity:0.6;stroke:#669999;" x="205.816462" xlink:href="#m24af8698cc" y="189.651156"/>
     <use style="fill:#669999;opacity:0.6;stroke:#669999;" x="104.40645" xlink:href="#m24af8698cc" y="266.492704"/>
     <use style="fill:#669999;opacity:0.6;stroke:#669999;" x="231.719445" xlink:href="#m24af8698cc" y="172.650138"/>
     <use style="fill:#669999;opacity:0.6;stroke:#669999;" x="247.801861" xlink:href="#m24af8698cc" y="162.566232"/>
     <use style="fill:#669999;opacity:0.6;stroke:#669999;" x="243.0454" xlink:href="#m24af8698cc" y="153.800842"/>
     <use style="fill:#669999;opacity:0.6;stroke:#669999;" x="186.055421" xlink:href="#m24af8698cc" y="212.89945"/>
     <use style="fill:#669999;opacity:0.6;stroke:#669999;" x="413.982077" xlink:href="#m24af8698cc" y="58.219219"/>
     <use style="fill:#669999;opacity:0.6;stroke:#669999;" x="271.800252" xlink:href="#m24af8698cc" y="150.74336"/>
     <use style="fill:#669999;opacity:0.6;stroke:#669999;" x="108.499003" xlink:href="#m24af8698cc" y="248.475918"/>
     <use style="fill:#669999;opacity:0.6;stroke:#669999;" x="192.324988" xlink:href="#m24af8698cc" y="198.863259"/>
    </g>
   </g>
   <g id="patch_3">
    <path d="M 57.6 307.584 
L 57.6 41.472 
" style="fill:none;stroke:#000000;stroke-linecap:square;stroke-linejoin:miter;stroke-width:0.8;"/>
   </g>
   <g id="patch_4">
    <path d="M 414.72 307.584 
L 414.72 41.472 
" style="fill:none;stroke:#000000;stroke-linecap:square;stroke-linejoin:miter;stroke-width:0.8;"/>
   </g>
   <g id="patch_5">
    <path d="M 57.6 307.584 
L 414.72 307.584 
" style="fill:none;stroke:#000000;stroke-linecap:square;stroke-linejoin:miter;stroke-width:0.8;"/>
   </g>
   <g id="patch_6">
    <path d="M 57.6 41.472 
L 414.72 41.472 
" style="fill:none;stroke:#000000;stroke-linecap:square;stroke-linejoin:miter;stroke-width:0.8;"/>
   </g>
  </g>
 </g>
 <defs>
  <clipPath id="pf736bc2a27">
   <rect height="266.112" width="357.12" x="57.6" y="41.472"/>
  </clipPath>
 </defs>
</svg>
